<?xml version="1.0" standalone="no"?>
<!DOCTYPE svg PUBLIC "-//W3C//DTD SVG 20010904//EN"
 "http://www.w3.org/TR/2001/REC-SVG-20010904/DTD/svg10.dtd">
<svg version="1.0" xmlns="http://www.w3.org/2000/svg"
 width="500.000000pt" height="500.000000pt" viewBox="0 0 500.000000 500.000000"
 preserveAspectRatio="xMidYMid meet">

<g transform="translate(0.000000,500.000000) scale(0.100000,-0.100000)"
fill="#000000" stroke="none">
<path d="M2327 3705 c-172 -33 -332 -119 -445 -240 -116 -123 -161 -232 -170
-402 l-5 -113 32 0 31 0 0 64 0 65 42 3 43 3 18 69 c75 290 373 472 713 434
168 -18 338 -104 432 -216 49 -58 99 -161 116 -235 11 -52 11 -52 54 -55 l42
-3 0 -65 0 -64 31 0 32 0 -6 113 c-6 135 -29 207 -96 310 -103 156 -258 264
-457 317 -104 28 -299 35 -407 15z"/>
<path d="M2372 3456 c-185 -45 -357 -201 -416 -378 -29 -89 -38 -174 -25 -260
9 -60 9 -93 0 -139 -10 -50 -10 -69 3 -112 27 -90 111 -167 184 -167 29 0 30
-2 37 -57 3 -32 13 -68 21 -80 15 -24 59 -50 106 -64 l28 -8 0 94 c0 85 2 95
21 105 16 9 25 8 40 -6 16 -15 19 -31 19 -116 0 -90 2 -98 19 -98 11 0 26 -3
35 -6 14 -5 16 7 16 99 0 83 3 109 16 121 18 19 20 19 45 6 17 -10 19 -22 19
-121 0 -97 2 -110 16 -105 9 3 24 6 35 6 17 0 19 8 19 94 0 76 3 98 18 116 16
19 22 21 40 11 20 -11 22 -19 22 -106 l0 -94 28 8 c88 26 120 62 129 145 5 52
8 56 32 56 41 1 103 33 138 73 47 54 66 126 52 200 -7 43 -7 84 1 146 25 191
-41 367 -188 502 -133 123 -336 177 -510 135z m27 -460 c41 -22 61 -58 61
-114 0 -117 -92 -225 -214 -253 -69 -15 -120 0 -147 45 -16 26 -19 50 -19 144
0 62 5 122 11 133 23 44 67 59 177 59 70 0 112 -5 131 -14z m468 -6 c50 -30
58 -53 58 -177 -1 -128 -13 -157 -79 -182 -74 -28 -205 26 -258 107 -49 74
-62 156 -33 212 25 48 58 59 175 60 87 0 111 -3 137 -20z m-311 -402 c57 -53
68 -72 54 -98 -15 -28 -44 -25 -76 9 l-28 30 -33 -30 c-19 -16 -42 -29 -53
-29 -26 0 -44 34 -31 58 13 24 98 102 111 102 6 0 31 -19 56 -42z"/>
<path d="M2805 2830 c-13 -41 43 -70 64 -33 13 25 -5 53 -34 53 -15 0 -26 -7
-30 -20z"/>
<path d="M1870 2943 c-49 -18 -50 -23 -50 -250 0 -254 0 -253 100 -253 l60 0
-29 41 c-40 55 -54 125 -41 200 8 43 8 82 0 141 -6 44 -9 92 -6 105 6 23 -2
28 -34 16z"/>
<path d="M3100 2908 c0 -24 -5 -70 -10 -103 -7 -42 -7 -79 1 -126 10 -55 9
-74 -5 -121 -9 -31 -28 -70 -42 -87 l-26 -31 52 0 c51 0 88 12 102 34 4 6 8
106 8 222 0 228 -1 231 -57 248 -21 7 -23 4 -23 -36z"/>
<path d="M1701 2889 c-46 -18 -50 -34 -51 -201 l0 -157 26 -20 c29 -23 74 -27
105 -11 18 10 19 23 19 196 l0 184 -26 10 c-30 12 -41 12 -73 -1z"/>
<path d="M3223 2890 c-23 -9 -23 -12 -23 -194 0 -179 1 -186 21 -197 27 -14
86 -5 110 17 17 15 19 33 19 171 0 85 -4 163 -10 173 -9 17 -60 41 -84 39 -6
0 -21 -4 -33 -9z"/>
<path d="M1051 2056 c-42 -23 -50 -53 -51 -178 0 -116 0 -118 29 -150 l29 -33
127 -3 c88 -3 130 0 140 8 18 15 20 56 3 67 -7 4 -60 10 -118 13 l-105 5 -3
88 c-2 57 1 94 9 103 8 10 38 14 115 14 94 0 103 2 109 20 3 11 3 29 0 40 -6
19 -15 20 -133 20 -86 -1 -135 -5 -151 -14z"/>
<path d="M1460 2057 c-47 -23 -60 -69 -60 -212 0 -144 4 -155 56 -155 39 0 47
10 54 70 4 40 8 45 30 45 22 0 25 -5 28 -45 4 -58 17 -72 61 -68 l36 3 3 145
c3 159 -3 187 -47 213 -34 20 -124 22 -161 4z m98 -79 c16 -16 15 -83 -2 -97
-7 -6 -21 -9 -30 -5 -20 8 -23 99 -3 107 19 8 22 8 35 -5z"/>
<path d="M1780 2043 c-56 -50 -49 -150 13 -185 12 -7 58 -15 102 -18 77 -5 80
-6 80 -30 0 -25 -1 -25 -105 -30 -58 -3 -111 -9 -117 -13 -18 -11 -16 -52 2
-67 10 -8 52 -11 140 -8 l127 3 29 33 c23 26 29 41 29 80 -1 80 -41 112 -144
112 -74 0 -103 17 -86 50 9 17 24 20 118 22 l107 3 0 35 0 35 -132 3 c-132 3
-132 3 -163 -25z"/>
<path d="M2155 2058 c-3 -8 -4 -92 -3 -188 l3 -175 24 -3 c12 -2 34 -1 47 2
l24 6 -2 183 -3 182 -43 3 c-28 2 -44 -1 -47 -10z"/>
<path d="M2325 2057 c-3 -7 -4 -91 -3 -187 l3 -175 33 -3 c57 -6 62 6 62 148
0 133 8 158 44 144 14 -5 16 -25 16 -138 0 -89 4 -136 12 -144 18 -18 222 -16
237 2 8 9 11 68 9 187 l-3 174 -45 0 -45 0 -2 -120 c-4 -152 -7 -165 -38 -165
-31 0 -34 13 -38 165 l-2 120 -118 3 c-90 2 -119 0 -122 -11z"/>
<path d="M2861 2056 c-42 -23 -50 -53 -51 -178 0 -116 0 -118 29 -150 28 -31
33 -33 99 -33 61 0 74 3 96 24 33 31 46 78 46 166 0 98 -14 142 -53 165 -38
23 -129 26 -166 6z m97 -74 c9 -6 12 -34 10 -103 -3 -93 -3 -94 -28 -94 -25 0
-25 2 -28 88 -3 102 9 132 46 109z"/>
<path d="M3381 2056 c-42 -23 -50 -53 -51 -178 0 -116 0 -118 29 -150 28 -31
33 -33 99 -33 61 0 74 3 96 24 33 31 46 78 46 166 0 98 -14 142 -53 165 -38
23 -129 26 -166 6z m97 -74 c9 -6 12 -34 10 -103 -3 -93 -3 -94 -28 -94 -25 0
-25 2 -28 88 -3 102 9 132 46 109z"/>
<path d="M3666 2054 c-12 -31 -7 -339 6 -352 16 -16 75 -15 85 1 4 6 10 39 13
72 l5 60 97 3 c105 3 125 13 114 57 -6 24 -9 25 -95 25 -105 0 -121 5 -121 35
0 31 16 35 125 35 85 0 95 2 105 20 6 12 8 30 5 40 -6 19 -16 20 -170 20 -139
0 -164 -2 -169 -16z"/>
<path d="M1886 1384 c-12 -31 -7 -339 6 -352 16 -16 210 -16 226 0 16 16 15
55 0 65 -7 4 -38 10 -68 13 l-55 5 -2 120 c-4 165 -4 165 -57 165 -31 0 -46
-5 -50 -16z"/>
<path d="M2204 1387 c-2 -7 -3 -91 -2 -187 l3 -175 33 -3 c59 -6 62 3 62 183
0 90 -3 170 -6 179 -8 20 -82 22 -90 3z"/>
<path d="M2374 1387 c-2 -7 -3 -91 -2 -187 l3 -175 33 -3 c48 -5 62 12 62 72
0 29 5 57 12 64 8 8 46 12 105 12 90 0 93 1 99 25 12 49 2 54 -102 57 -77 2
-99 6 -107 20 -8 12 -7 21 2 32 11 13 35 16 117 16 94 0 103 2 109 20 3 11 3
29 0 40 -6 19 -15 20 -166 20 -121 0 -161 -3 -165 -13z"/>
<path d="M2776 1384 c-12 -31 -7 -339 6 -352 8 -8 59 -12 165 -12 143 0 153 1
163 20 15 28 4 59 -23 65 -12 3 -62 6 -112 8 -89 2 -90 2 -90 27 0 25 1 25 97
28 105 3 125 13 114 57 -6 24 -9 25 -95 25 -105 0 -121 5 -121 35 0 31 16 35
125 35 102 0 122 10 111 55 l-6 25 -164 0 c-140 0 -165 -2 -170 -16z"/>
</g>
</svg>
